<svg xmlns="http://www.w3.org/2000/svg" width="48" height="48" xmlns:xlink="http://www.w3.org/1999/xlink" version="1.1"><defs><linearGradient id="color-1" gradientUnits="userSpaceOnUse" x1="10.4981" y1="10.4695" x2="83.5273" y2="83.5558"><stop stop-color="rgb(0, 0, 0)" stop-opacity="0.22" offset="0.45" /><stop stop-color="rgb(0, 0, 0)" stop-opacity="0" offset="1" /></linearGradient><filter id="dropshadow-base"><feColorMatrix type="matrix" values="0 0 0 0 0 0 0 0 0 0 0 0 0 0 0 0 0 0 0.8 0" /> <feOffset dx="0" dy="1" /> <feGaussianBlur stdDeviation="1" /> <feComposite in="SourceGraphic" /></filter><filter id="dropshadow-banner" x="-10%" y="-10%" width="120%" height="130%"><feColorMatrix type="matrix" values="0 0 0 0 0 0 0 0 0 0 0 0 0 0 0 0 0 0 0.4 0" /> <feOffset dx="0" dy="1" /> <feGaussianBlur stdDeviation="0.5" /> <feComposite in="SourceGraphic" /></filter></defs><g font-family="none" font-size="none" font-weight="none" style="mix-blend-mode: normal" fill="none" fill-rule="nonzero" stroke="none" stroke-dasharray="" stroke-dashoffset="0" stroke-linecap="butt" stroke-linejoin="miter" stroke-miterlimit="10" stroke-width="none" text-anchor="none"><path id="base 1 5" fill="#fffcf9" stroke-width="1" d="M 2 24 c 0 -12.1503 9.84974 -22 22 -22 c 12.1503 0 22 9.84974 22 22 c 0 12.1503 -9.84974 22 -22 22 c -12.1503 0 -22 -9.84974 -22 -22 Z" /><path fill="url(#color-1)" stroke-width="1" d="M 10.4981 37.5305 v -27.061 h 27.0039 l 7.72356 7.72356 c 0.50493 1.8499 0.77448 3.79694 0.77448 5.80693 c 0 12.1503 -9.84974 22 -22 22 c -2.00999 0 -3.95702 -0.26955 -5.80691 -0.77447 Z" /><path fill="none" stroke-width="0" d="M 10.498 10.4695 h 27.0039 v 27.061 h -27.0039 Z M 34.4019 30.0516 c -0.26262 0 -0.49669 0.01713 -0.51382 0.03996 c -0.08564 0.08564 -0.02855 0.13131 0.15985 0.13131 h 0.19982 v 0.54236 c 0 0.5024 0.01142 0.54236 0.11418 0.54236 c 0.10276 0 0.11418 -0.04567 0.1256 -0.53094 l 0.01713 -0.52523 l 0.1884 -0.01713 c 0.11418 -0.01142 0.18269 -0.05138 0.18269 -0.10276 c 0 -0.0628 -0.10276 -0.07993 -0.47385 -0.07993 Z M 35.2868 30.063 l -0.18269 -0.01713 v 0.628 c 0 0.59374 0.00571 0.63371 0.11418 0.63371 c 0.09705 0 0.10847 -0.04567 0.1256 -0.47385 l 0.01713 -0.46814 l 0.17698 0.45673 c 0.10276 0.26262 0.21694 0.46243 0.26833 0.47385 c 0.0628 0.01142 0.13702 -0.11418 0.26262 -0.42818 l 0.17127 -0.44531 l 0.00571 0.4396 c 0 0.43389 0.00571 0.44531 0.14273 0.44531 h 0.14273 v -1.256 h -0.1884 c -0.18269 0 -0.1884 0.01142 -0.35967 0.46814 l -0.17127 0.46243 l -0.17127 -0.45102 c -0.15985 -0.42247 -0.17698 -0.45102 -0.35396 -0.46814 Z M 13.324 31.4389 c -0.35967 0.09705 -0.49669 0.17127 -0.78214 0.42818 c -0.74218 0.67367 -0.79927 2.15232 -0.10276 2.94588 c 0.10276 0.11418 0.31971 0.27974 0.47956 0.36538 c 0.26262 0.13702 0.35396 0.15414 0.89061 0.15414 c 0.50811 0 0.63942 -0.01713 0.86207 -0.13131 c 0.35967 -0.17698 0.66796 -0.49098 0.84494 -0.86778 c 0.13131 -0.27974 0.14844 -0.38251 0.14844 -0.942 c 0 -0.55949 -0.01713 -0.66225 -0.14844 -0.942 c -0.21124 -0.45102 -0.41105 -0.65654 -0.81069 -0.85636 c -0.42247 -0.20553 -0.94771 -0.26262 -1.38159 -0.15414 Z M 18.4965 31.4218 h -0.21694 c -0.2512 0.00571 -0.53665 0.11418 -0.79927 0.31971 l -0.1884 0.14273 v -0.40534 h -0.97054 l 0.01142 1.89541 l 0.01713 1.90112 h 1.02763 l 0.05709 -2.61475 l 0.15414 -0.11418 c 0.09705 -0.07422 0.28545 -0.1256 0.51382 -0.14844 l 0.35967 -0.03425 l 0.01713 -0.47385 Z M 19.7125 31.5417 c -0.30258 0.11418 -0.76502 0.46814 -0.76502 0.58233 c 0 0.06851 0.54807 0.38251 0.66225 0.38251 c 0.03425 0 0.10847 -0.05138 0.16556 -0.11418 c 0.15414 -0.17127 0.5652 -0.30258 0.83352 -0.26833 c 0.29687 0.03996 0.45102 0.17698 0.45102 0.41105 v 0.18269 l -0.61087 0.11989 c -1.10756 0.21694 -1.65563 0.61658 -1.71843 1.256 c -0.04567 0.5024 0.15414 0.89061 0.57662 1.10185 c 0.33113 0.17127 1.01621 0.13702 1.47294 -0.07422 l 0.32542 -0.14844 l 0.03425 0.16556 l 0.03425 0.17127 l 0.4396 -0.01713 l 0.44531 -0.01713 l 0.01713 -1.41585 c 0.00571 -0.86207 -0.01142 -1.50719 -0.04567 -1.64421 c -0.07993 -0.30258 -0.40534 -0.60516 -0.75931 -0.70792 c -0.41676 -0.1256 -1.1932 -0.10847 -1.55858 0.03425 Z M 25.0562 31.4218 c -0.4396 0 -0.73647 0.09705 -1.08472 0.34254 c -0.08564 0.0628 -0.17127 0.11418 -0.1884 0.11418 c -0.01713 0 -0.04567 -0.09135 -0.06851 -0.20553 l -0.03425 -0.20553 l -0.32542 0.03996 c -0.58233 0.0628 -0.52523 -0.14844 -0.52523 1.91825 v 1.82119 h 1.02763 v -2.71181 l 0.1884 -0.1256 c 0.34825 -0.23978 0.72505 -0.314 0.95341 -0.1884 c 0.19411 0.10276 0.22836 0.3768 0.22836 1.71843 v 1.30738 h 1.03905 l -0.02284 -1.50149 c -0.01713 -1.46152 -0.02284 -1.50149 -0.15985 -1.78123 c -0.09705 -0.19982 -0.21124 -0.32542 -0.37109 -0.41105 c -0.18269 -0.10276 -0.31971 -0.13131 -0.65654 -0.13131 Z M 27.8137 31.5417 c -0.628 0.30829 -0.97625 1.07901 -0.91916 2.02101 c 0.06851 1.07331 0.628 1.68418 1.54716 1.68418 c 0.42818 0 0.54807 -0.04567 0.83352 -0.30829 l 0.19411 -0.17698 l -0.03996 0.39963 c -0.05138 0.63371 -0.27974 0.84494 -0.85636 0.81069 c -0.28545 -0.01713 -0.35967 -0.04567 -0.47385 -0.18269 l -0.14273 -0.15985 l -0.45673 0.06851 c -0.25691 0.03425 -0.47385 0.07422 -0.49098 0.09135 c -0.0628 0.05709 0.13131 0.38251 0.33684 0.5652 c 0.31971 0.29116 0.73647 0.39963 1.42727 0.36538 c 0.89632 -0.04567 1.37589 -0.34825 1.56999 -0.99338 c 0.0628 -0.21124 0.07993 -0.70792 0.07993 -2.26079 v -1.99247 l -0.4396 0.01713 c -0.4396 0.01713 -0.44531 0.01713 -0.47385 0.18269 c -0.02855 0.15414 -0.03425 0.15985 -0.11418 0.0628 c -0.04567 -0.05709 -0.1884 -0.14844 -0.314 -0.20553 c -0.33113 -0.15414 -0.95341 -0.14273 -1.26741 0.01142 Z M 32.7634 31.4275 c -0.26833 0 -0.55949 0.02855 -0.65654 0.0628 c -0.71363 0.2512 -1.11327 0.942 -1.11327 1.92396 c 0 0.83352 0.33684 1.45581 0.95912 1.75839 c 0.28545 0.14273 0.38251 0.15985 0.83923 0.15414 c 0.63942 -0.00571 1.04476 -0.14844 1.3873 -0.49098 c 0.13131 -0.1256 0.23978 -0.26262 0.23978 -0.29687 c 0 -0.03425 -0.15985 -0.14844 -0.35396 -0.2512 l -0.34825 -0.1884 l -0.21694 0.21124 c -0.19411 0.1884 -0.26262 0.21694 -0.55378 0.23978 c -0.5652 0.03996 -0.83352 -0.17127 -0.91916 -0.72505 l -0.04567 -0.29116 h 2.51199 l -0.02855 -0.44531 c -0.04567 -0.74789 -0.35396 -1.256 -0.93058 -1.53003 c -0.23407 -0.11418 -0.37109 -0.13702 -0.77072 -0.13131 Z M 14.6543 33.2601 c 0.02855 0.50811 -0.06851 0.85065 -0.30258 1.07331 c -0.19982 0.1884 -0.72505 0.22265 -0.97625 0.06851 c -0.35396 -0.22265 -0.51382 -0.92487 -0.34825 -1.50149 c 0.10847 -0.37109 0.29687 -0.57091 0.59374 -0.62229 c 0.65083 -0.10847 0.98767 0.21694 1.03334 0.98196 Z M 21.0598 33.8082 c 0 0.4396 0 0.44531 -0.18269 0.55378 c -0.45102 0.27404 -0.7536 0.31971 -0.98196 0.13702 c -0.11418 -0.08564 -0.14844 -0.16556 -0.14844 -0.33113 c 0 -0.36538 0.21124 -0.55378 0.81069 -0.71363 c 0.51953 -0.14273 0.5024 -0.15414 0.5024 0.35396 Z M 29.3094 32.5979 c 0.16556 0.32542 0.15414 1.04476 -0.02284 1.40443 c -0.1884 0.39963 -0.53665 0.53665 -0.94771 0.36538 c -0.29116 -0.11989 -0.38822 -0.36538 -0.41676 -1.0048 c -0.01713 -0.47956 -0.00571 -0.57091 0.11418 -0.79927 c 0.08564 -0.16556 0.19982 -0.29116 0.33113 -0.35967 c 0.34825 -0.17698 0.73647 -0.01713 0.942 0.39393 Z M 33.1916 32.2325 c 0.14273 0.11418 0.314 0.41676 0.314 0.55949 c 0 0.03425 -0.26833 0.05709 -0.74218 0.05709 c -0.63371 0 -0.74218 -0.01142 -0.74218 -0.08564 c 0 -0.14844 0.15985 -0.41105 0.31971 -0.53665 c 0.21124 -0.16556 0.63371 -0.16556 0.85065 0.00571 Z" /><path fill="#ea6e06" stroke-width="0" d="M 10.498 10.4695 h 27.0039 v 27.061 h -27.0039 Z M 34.4019 30.0516 c -0.26262 0 -0.49669 0.01713 -0.51382 0.03996 c -0.08564 0.08564 -0.02855 0.13131 0.15985 0.13131 h 0.19982 v 0.54236 c 0 0.5024 0.01142 0.54236 0.11418 0.54236 c 0.10276 0 0.11418 -0.04567 0.1256 -0.53094 l 0.01713 -0.52523 l 0.1884 -0.01713 c 0.11418 -0.01142 0.18269 -0.05138 0.18269 -0.10276 c 0 -0.0628 -0.10276 -0.07993 -0.47385 -0.07993 Z M 35.2868 30.063 l -0.18269 -0.01713 v 0.628 c 0 0.59374 0.00571 0.63371 0.11418 0.63371 c 0.09705 0 0.10847 -0.04567 0.1256 -0.47385 l 0.01713 -0.46814 l 0.17698 0.45673 c 0.10276 0.26262 0.21694 0.46243 0.26833 0.47385 c 0.0628 0.01142 0.13702 -0.11418 0.26262 -0.42818 l 0.17127 -0.44531 l 0.00571 0.4396 c 0 0.43389 0.00571 0.44531 0.14273 0.44531 h 0.14273 v -1.256 h -0.1884 c -0.18269 0 -0.1884 0.01142 -0.35967 0.46814 l -0.17127 0.46243 l -0.17127 -0.45102 c -0.15985 -0.42247 -0.17698 -0.45102 -0.35396 -0.46814 Z M 13.324 31.4389 c -0.35967 0.09705 -0.49669 0.17127 -0.78214 0.42818 c -0.74218 0.67367 -0.79927 2.15232 -0.10276 2.94588 c 0.10276 0.11418 0.31971 0.27974 0.47956 0.36538 c 0.26262 0.13702 0.35396 0.15414 0.89061 0.15414 c 0.50811 0 0.63942 -0.01713 0.86207 -0.13131 c 0.35967 -0.17698 0.66796 -0.49098 0.84494 -0.86778 c 0.13131 -0.27974 0.14844 -0.38251 0.14844 -0.942 c 0 -0.55949 -0.01713 -0.66225 -0.14844 -0.942 c -0.21124 -0.45102 -0.41105 -0.65654 -0.81069 -0.85636 c -0.42247 -0.20553 -0.94771 -0.26262 -1.38159 -0.15414 Z M 18.4965 31.4218 h -0.21694 c -0.2512 0.00571 -0.53665 0.11418 -0.79927 0.31971 l -0.1884 0.14273 v -0.40534 h -0.97054 l 0.01142 1.89541 l 0.01713 1.90112 h 1.02763 l 0.05709 -2.61475 l 0.15414 -0.11418 c 0.09705 -0.07422 0.28545 -0.1256 0.51382 -0.14844 l 0.35967 -0.03425 l 0.01713 -0.47385 Z M 19.7125 31.5417 c -0.30258 0.11418 -0.76502 0.46814 -0.76502 0.58233 c 0 0.06851 0.54807 0.38251 0.66225 0.38251 c 0.03425 0 0.10847 -0.05138 0.16556 -0.11418 c 0.15414 -0.17127 0.5652 -0.30258 0.83352 -0.26833 c 0.29687 0.03996 0.45102 0.17698 0.45102 0.41105 v 0.18269 l -0.61087 0.11989 c -1.10756 0.21694 -1.65563 0.61658 -1.71843 1.256 c -0.04567 0.5024 0.15414 0.89061 0.57662 1.10185 c 0.33113 0.17127 1.01621 0.13702 1.47294 -0.07422 l 0.32542 -0.14844 l 0.03425 0.16556 l 0.03425 0.17127 l 0.4396 -0.01713 l 0.44531 -0.01713 l 0.01713 -1.41585 c 0.00571 -0.86207 -0.01142 -1.50719 -0.04567 -1.64421 c -0.07993 -0.30258 -0.40534 -0.60516 -0.75931 -0.70792 c -0.41676 -0.1256 -1.1932 -0.10847 -1.55858 0.03425 Z M 25.0562 31.4218 c -0.4396 0 -0.73647 0.09705 -1.08472 0.34254 c -0.08564 0.0628 -0.17127 0.11418 -0.1884 0.11418 c -0.01713 0 -0.04567 -0.09135 -0.06851 -0.20553 l -0.03425 -0.20553 l -0.32542 0.03996 c -0.58233 0.0628 -0.52523 -0.14844 -0.52523 1.91825 v 1.82119 h 1.02763 v -2.71181 l 0.1884 -0.1256 c 0.34825 -0.23978 0.72505 -0.314 0.95341 -0.1884 c 0.19411 0.10276 0.22836 0.3768 0.22836 1.71843 v 1.30738 h 1.03905 l -0.02284 -1.50149 c -0.01713 -1.46152 -0.02284 -1.50149 -0.15985 -1.78123 c -0.09705 -0.19982 -0.21124 -0.32542 -0.37109 -0.41105 c -0.18269 -0.10276 -0.31971 -0.13131 -0.65654 -0.13131 Z M 27.8137 31.5417 c -0.628 0.30829 -0.97625 1.07901 -0.91916 2.02101 c 0.06851 1.07331 0.628 1.68418 1.54716 1.68418 c 0.42818 0 0.54807 -0.04567 0.83352 -0.30829 l 0.19411 -0.17698 l -0.03996 0.39963 c -0.05138 0.63371 -0.27974 0.84494 -0.85636 0.81069 c -0.28545 -0.01713 -0.35967 -0.04567 -0.47385 -0.18269 l -0.14273 -0.15985 l -0.45673 0.06851 c -0.25691 0.03425 -0.47385 0.07422 -0.49098 0.09135 c -0.0628 0.05709 0.13131 0.38251 0.33684 0.5652 c 0.31971 0.29116 0.73647 0.39963 1.42727 0.36538 c 0.89632 -0.04567 1.37589 -0.34825 1.56999 -0.99338 c 0.0628 -0.21124 0.07993 -0.70792 0.07993 -2.26079 v -1.99247 l -0.4396 0.01713 c -0.4396 0.01713 -0.44531 0.01713 -0.47385 0.18269 c -0.02855 0.15414 -0.03425 0.15985 -0.11418 0.0628 c -0.04567 -0.05709 -0.1884 -0.14844 -0.314 -0.20553 c -0.33113 -0.15414 -0.95341 -0.14273 -1.26741 0.01142 Z M 32.7634 31.4275 c -0.26833 0 -0.55949 0.02855 -0.65654 0.0628 c -0.71363 0.2512 -1.11327 0.942 -1.11327 1.92396 c 0 0.83352 0.33684 1.45581 0.95912 1.75839 c 0.28545 0.14273 0.38251 0.15985 0.83923 0.15414 c 0.63942 -0.00571 1.04476 -0.14844 1.3873 -0.49098 c 0.13131 -0.1256 0.23978 -0.26262 0.23978 -0.29687 c 0 -0.03425 -0.15985 -0.14844 -0.35396 -0.2512 l -0.34825 -0.1884 l -0.21694 0.21124 c -0.19411 0.1884 -0.26262 0.21694 -0.55378 0.23978 c -0.5652 0.03996 -0.83352 -0.17127 -0.91916 -0.72505 l -0.04567 -0.29116 h 2.51199 l -0.02855 -0.44531 c -0.04567 -0.74789 -0.35396 -1.256 -0.93058 -1.53003 c -0.23407 -0.11418 -0.37109 -0.13702 -0.77072 -0.13131 Z M 14.6543 33.2601 c 0.02855 0.50811 -0.06851 0.85065 -0.30258 1.07331 c -0.19982 0.1884 -0.72505 0.22265 -0.97625 0.06851 c -0.35396 -0.22265 -0.51382 -0.92487 -0.34825 -1.50149 c 0.10847 -0.37109 0.29687 -0.57091 0.59374 -0.62229 c 0.65083 -0.10847 0.98767 0.21694 1.03334 0.98196 Z M 21.0598 33.8082 c 0 0.4396 0 0.44531 -0.18269 0.55378 c -0.45102 0.27404 -0.7536 0.31971 -0.98196 0.13702 c -0.11418 -0.08564 -0.14844 -0.16556 -0.14844 -0.33113 c 0 -0.36538 0.21124 -0.55378 0.81069 -0.71363 c 0.51953 -0.14273 0.5024 -0.15414 0.5024 0.35396 Z M 29.3094 32.5979 c 0.16556 0.32542 0.15414 1.04476 -0.02284 1.40443 c -0.1884 0.39963 -0.53665 0.53665 -0.94771 0.36538 c -0.29116 -0.11989 -0.38822 -0.36538 -0.41676 -1.0048 c -0.01713 -0.47956 -0.00571 -0.57091 0.11418 -0.79927 c 0.08564 -0.16556 0.19982 -0.29116 0.33113 -0.35967 c 0.34825 -0.17698 0.73647 -0.01713 0.942 0.39393 Z M 33.1916 32.2325 c 0.14273 0.11418 0.314 0.41676 0.314 0.55949 c 0 0.03425 -0.26833 0.05709 -0.74218 0.05709 c -0.63371 0 -0.74218 -0.01142 -0.74218 -0.08564 c 0 -0.14844 0.15985 -0.41105 0.31971 -0.53665 c 0.21124 -0.16556 0.63371 -0.16556 0.85065 0.00571 Z" /><path id="base 1 1 1" fill="none" stroke-width="1" d="M 2 24 c 0 -12.1503 9.84974 -22 22 -22 c 12.1503 0 22 9.84974 22 22 c 0 12.1503 -9.84974 22 -22 22 c -12.1503 0 -22 -9.84974 -22 -22 Z" /><g font-family="Roboto,sans-serif" font-size="14px" font-weight="400" fill="#000000" stroke-width="1" text-anchor="start"><g /></g><rect fill="none" stroke-width="1" x="2" y="2" width="44" height="22" /><path fill="none" stroke-width="1" d="M 2 24 v -22 h 44 v 22 Z" /><path fill="none" stroke-width="1" d="M 2 24 v -22 h 44 v 22 Z" /><path fill="none" stroke-width="1" d="M 2 24 v -22 h 44 v 22 Z" /><path fill="none" stroke-width="1" d="M 2 24 v -22 h 44 v 22 Z" /></g></svg>